<svg width="400" height="300" xmlns="http://www.w3.org/2000/svg">
    <defs>
      <linearGradient id="skyGrad" x1="0%" y1="0%" x2="0%" y2="100%">
        <stop offset="0%" style="stop-color:#87ceeb;stop-opacity:1" />
        <stop offset="100%" style="stop-color:#e0f6ff;stop-opacity:1" />
      </linearGradient>
    </defs>
    <rect width="100%" height="100%" fill="url(#skyGrad)"/>
    <!-- Ground -->
    <rect x="0" y="200" width="400" height="100" fill="#90ee90"/>
    <!-- House -->
    <rect x="100" y="120" width="200" height="120" fill="#deb887"/>
    <!-- Roof -->
    <polygon points="200,80 80,120 320,120" fill="#8b4513"/>
    <!-- Door -->
    <rect x="180" y="180" width="40" height="60" fill="#654321"/>
    <circle cx="210" cy="210" r="2" fill="#ffd700"/>
    <!-- Windows -->
    <rect x="120" y="140" width="30" height="30" fill="#87ceeb" stroke="#000" stroke-width="2"/>
    <rect x="250" y="140" width="30" height="30" fill="#87ceeb" stroke="#000" stroke-width="2"/>
    <!-- Window frames -->
    <line x1="135" y1="140" x2="135" y2="170" stroke="#000" stroke-width="1"/>
    <line x1="120" y1="155" x2="150" y2="155" stroke="#000" stroke-width="1"/>
    <line x1="265" y1="140" x2="265" y2="170" stroke="#000" stroke-width="1"/>
    <line x1="250" y1="155" x2="280" y2="155" stroke="#000" stroke-width="1"/>
    <!-- Trees -->
    <rect x="50" y="180" width="10" height="40" fill="#8b4513"/>
    <circle cx="55" cy="170" r="15" fill="#228b22"/>
    <rect x="340" y="185" width="8" height="35" fill="#8b4513"/>
    <circle cx="344" cy="175" r="12" fill="#32cd32"/>
    <!-- Sun -->
    <circle cx="350" cy="50" r="20" fill="#ffd700"/>
    <text x="200" y="290" font-family="Arial" font-size="14" fill="#000" text-anchor="middle">Premium Property</text>
  </svg>